HIERARCHY
ROOT Hips
{
	OFFSET 0.00000 0.00000 0.00000
	CHANNELS 6 Xposition Yposition Zposition Zrotation Yrotation Xrotation 
	JOINT LHipJoint
	{
		OFFSET 0 0 0
		CHANNELS 3 Zrotation Yrotation Xrotation
		JOINT LeftUpLeg
		{
			OFFSET 1.57093 -1.69714 0.87455
			CHANNELS 3 Zrotation Yrotation Xrotation
			JOINT LeftLeg
			{
				OFFSET 2.48056 -6.81529 0.00000
				CHANNELS 3 Zrotation Yrotation Xrotation
				JOINT LeftFoot
				{
					OFFSET 2.62558 -7.21374 0.00000
					CHANNELS 3 Zrotation Yrotation Xrotation
					JOINT LeftToeBase
					{
						OFFSET 0.17911 -0.49210 2.16707
						CHANNELS 3 Zrotation Yrotation Xrotation
						End Site
						{
							OFFSET 0.00000 -0.00000 1.11848
						}
					}
				}
			}
		}
	}
	JOINT RHipJoint
	{
		OFFSET 0 0 0
		CHANNELS 3 Zrotation Yrotation Xrotation
		JOINT RightUpLeg
		{
			OFFSET -1.69739 -1.69715 0.87455
			CHANNELS 3 Zrotation Yrotation Xrotation
			JOINT RightLeg
			{
				OFFSET -2.33658 -6.41972 0.00000
				CHANNELS 3 Zrotation Yrotation Xrotation
				JOINT RightFoot
				{
					OFFSET -2.60856 -7.16696 0.00000
					CHANNELS 3 Zrotation Yrotation Xrotation
					JOINT RightToeBase
					{
						OFFSET -0.20854 -0.57296 2.11053
						CHANNELS 3 Zrotation Yrotation Xrotation
						End Site
						{
							OFFSET -0.00000 -0.00000 1.09848
						}
					}
				}
			}
		}
	}
	JOINT LowerBack
	{
		OFFSET 0 0 0
		CHANNELS 3 Zrotation Yrotation Xrotation
		JOINT Spine
		{
			OFFSET 0.02563 2.15732 -0.03270
			CHANNELS 3 Zrotation Yrotation Xrotation
			JOINT Spine1
			{
				OFFSET 0.00281 2.14662 0.09285
				CHANNELS 3 Zrotation Yrotation Xrotation
				JOINT Neck
				{
					OFFSET 0 0 0
					CHANNELS 3 Zrotation Yrotation Xrotation
					JOINT Neck1
					{
						OFFSET -0.04440 1.68397 0.17601
						CHANNELS 3 Zrotation Yrotation Xrotation
						JOINT Head
						{
							OFFSET 0.06040 1.66995 -0.35615
							CHANNELS 3 Zrotation Yrotation Xrotation
							End Site
							{
								OFFSET 0.02405 1.72189 -0.14044
							}
						}
					}
				}
				JOINT LeftShoulder
				{
					OFFSET 0 0 0
					CHANNELS 3 Zrotation Yrotation Xrotation
					JOINT LeftArm
					{
						OFFSET 2.98955 1.90907 -0.21660
						CHANNELS 3 Zrotation Yrotation Xrotation
						JOINT LeftForeArm
						{
							OFFSET 4.91377 -0.00000 0.00000
							CHANNELS 3 Zrotation Yrotation Xrotation
							JOINT LeftHand
							{
								OFFSET 3.00291 -0.00000 -0.00000
								CHANNELS 3 Zrotation Yrotation Xrotation
								JOINT LeftFingerBase
								{
									OFFSET 0 0 0
									CHANNELS 3 Zrotation Yrotation Xrotation
									JOINT LeftHandIndex1
									{
										OFFSET 0.45092 -0.00000 -0.00000
										CHANNELS 3 Zrotation Yrotation Xrotation
										End Site
										{
											OFFSET 0.36355 -0.00000 -0.00000
										}
									}
								}
								JOINT LThumb
								{
									OFFSET 0 0 0
									CHANNELS 3 Zrotation Yrotation Xrotation
									End Site
									{
										OFFSET 0.36910 -0.00000 0.36910
									}
								}
							}
						}
					}
				}
				JOINT RightShoulder
				{
					OFFSET 0 0 0
					CHANNELS 3 Zrotation Yrotation Xrotation
					JOINT RightArm
					{
						OFFSET -2.80452 1.90886 -0.21152
						CHANNELS 3 Zrotation Yrotation Xrotation
						JOINT RightForeArm
						{
							OFFSET -4.86725 -0.00000 0.00000
							CHANNELS 3 Zrotation Yrotation Xrotation
							JOINT RightHand
							{
								OFFSET -3.17144 -0.00000 -0.00000
								CHANNELS 3 Zrotation Yrotation Xrotation
								JOINT RightFingerBase
								{
									OFFSET 0 0 0
									CHANNELS 3 Zrotation Yrotation Xrotation
									JOINT RightHandIndex1
									{
										OFFSET -0.41937 -0.00000 -0.00000
										CHANNELS 3 Zrotation Yrotation Xrotation
										End Site
										{
											OFFSET -0.33810 -0.00000 -0.00000
										}
									}
								}
								JOINT RThumb
								{
									OFFSET 0 0 0
									CHANNELS 3 Zrotation Yrotation Xrotation
									End Site
									{
										OFFSET -0.34327 -0.00000 0.34327
									}
								}
							}
						}
					}
				}
			}
		}
	}
}
MOTION
Frames: 10
Frame Time: 0.0155039
0.00 0.00 0.00 -3.8003 -39.1818 101.5140 0.0000 0.0000 0.0000 -21.2167 -8.6819 -65.6171 8.5076 16.4802 54.3710 1.9359 3.3531 25.4740 1.3027 7.2307 20.4008 0.0000 0.0000 0.0000 13.0737 21.7573 -59.8783 -7.3392 -15.6110 50.1460 -0.0670 -7.5581 6.6637 -0.0222 -0.9622 2.6447 16.1550 6.3935 -24.0882 -8.8044 5.2131 -1.1725 -17.1957 3.8938 14.2265 -0.2080 0.1346 -13.5644 4.7405 0.5558 -20.1319 1.6783 -0.0501 -4.4494 -0.0000 0.0000 0.0000 73.5137 -40.1965 84.4555 8.2920 -14.0251 -1.0217 -0.0000 -0.0000 178.1660 49.8776 -14.6557 -16.7108 -7.1250 0.0000 -0.0000 14.4241 8.4433 -12.5656 -0.0000 0.0000 0.0000 -35.3201 44.7314 -69.6302 -14.1182 22.9035 -2.8740 0.0000 -0.0000 -0.2022 -25.7719 -9.2882 4.4559 7.1250 -0.0000 -0.0000 1.0341 -40.2709 0.1206
0.00 0.00 0.00 -3.9443 -39.2709 101.6910 0.0000 0.0000 0.0000 -21.1072 -9.0304 -65.1829 7.9125 16.0545 52.2470 1.9099 3.7228 25.2262 1.2564 7.1058 20.0291 0.0000 0.0000 0.0000 13.1079 21.9469 -59.0847 -6.5970 -14.9829 47.3330 -0.0883 -7.5761 7.0697 -0.0257 -1.0345 2.8439 16.0129 6.4887 -24.2778 -8.8706 5.3626 -1.3252 -17.1121 3.9392 14.2032 -0.0506 0.1725 -13.0251 4.7370 0.6425 -21.1648 1.5138 -0.0602 -4.3325 0.0000 -0.0000 0.0000 71.1542 -43.2610 94.3090 5.9331 -10.1505 -0.5274 -0.0000 -0.0000 165.3050 46.8359 -14.2029 -14.6604 -7.1250 0.0000 -0.0000 12.6699 10.0603 -10.5296 0.0000 -0.0000 0.0000 -32.2036 46.0383 -67.4426 -14.9196 24.0339 -3.1931 0.0000 -0.0000 -3.4265 -24.8907 -9.5007 4.3795 7.1250 -0.0000 -0.0000 1.8287 -40.4263 0.2063
0.00 0.00 0.00 -4.0811 -39.3536 101.8520 0.0000 0.0000 0.0000 -20.9340 -9.4122 -64.7388 7.3490 15.6189 50.1823 1.8752 4.1230 24.9174 1.2115 6.9825 19.6635 0.0000 0.0000 0.0000 13.1860 22.0965 -58.2803 -5.8952 -14.3260 44.5597 -0.1105 -7.5761 7.4658 -0.0271 -1.0618 2.9189 15.8662 6.5891 -24.4651 -8.9520 5.5231 -1.4832 -17.0396 3.9903 14.1789 0.2300 0.2088 -12.9119 4.5680 0.6527 -21.5132 1.4160 -0.0808 -4.4603 0.0000 -0.0000 0.0000 68.1159 -46.3037 138.2878 2.9771 -5.1403 -0.1337 -0.0000 -0.0000 118.2470 41.2273 -12.1067 -10.4138 -7.1250 0.0000 -0.0000 9.5044 14.2148 -6.9780 0.0000 -0.0000 0.0000 -28.4822 47.3043 -64.4808 -15.9714 25.4818 -3.6336 0.0000 -0.0000 -6.3386 -24.0786 -9.6637 4.2900 7.1250 -0.0000 -0.0000 2.5600 -40.5316 0.2823
0.00 0.00 0.00 -4.2048 -39.4292 101.9950 0.0000 0.0000 0.0000 -20.6912 -9.8357 -64.2994 6.8266 15.1841 48.2153 1.8307 4.5397 24.5424 1.1613 6.8412 19.2459 0.0000 0.0000 0.0000 13.3067 22.2039 -57.4867 -5.2440 -13.6534 41.8663 -0.1334 -7.5721 7.8560 -0.0270 -1.0603 2.9148 15.7199 6.6843 -24.6437 -9.0405 5.6789 -1.6408 -16.9784 4.0396 14.1496 0.5196 0.2281 -12.8155 4.4119 0.6394 -21.8679 1.3208 -0.1151 -4.5873 0.0000 0.0000 0.0000 64.3337 -49.1583 -177.0472 1.5114 -2.6156 -0.0345 -0.0000 -0.0000 70.5653 41.7227 -12.6963 -11.0880 -7.1250 0.0000 -0.0000 9.7219 13.3578 -7.3213 0.0000 0.0000 0.0000 -24.1500 48.4872 -60.7421 -17.2695 27.2117 -4.2098 0.0000 -0.0000 -8.8968 -23.4004 -9.6046 4.1298 7.1250 -0.0000 -0.0000 3.1493 -40.4075 0.3570
0.00 0.00 0.00 -4.3164 -39.4963 102.1240 0.0000 0.0000 0.0000 -20.3717 -10.3016 -63.8875 6.3539 14.7627 46.3859 1.7791 4.9882 24.1180 1.1141 6.7054 18.8456 0.0000 0.0000 0.0000 13.4653 22.2762 -56.7256 -4.6515 -12.9802 39.2945 -0.1568 -7.5641 8.2410 -0.0263 -1.0476 2.8797 15.5771 6.7581 -24.8042 -9.1216 5.8061 -1.7878 -16.9237 4.0756 14.1103 0.7590 0.2311 -12.7790 4.3037 0.6127 -22.2261 1.2493 -0.1549 -4.7067 0.0000 0.0000 0.0000 59.7924 -51.6243 -131.6685 3.4414 -5.9358 -0.1785 -0.0000 -0.0000 22.4307 38.1643 -13.2781 -10.2321 -7.1250 0.0000 -0.0000 7.2837 13.3711 -5.4470 0.0000 0.0000 0.0000 -19.4059 49.5313 -56.3584 -18.7851 29.1508 -4.9257 0.0000 -0.0000 -11.1942 -22.8959 -9.3961 3.9443 7.1250 -0.0000 -0.0000 3.5669 -40.1386 0.4281
0.00 0.00 0.00 -4.5683 -39.6373 102.4270 0.0000 0.0000 0.0000 -18.0909 -12.6909 -62.8557 4.9119 13.2839 40.4408 1.6087 7.2229 22.7211 1.0484 6.5111 18.2749 0.0000 0.0000 0.0000 14.4834 22.4257 -54.0108 -2.7504 -10.2796 29.8869 -0.2654 -8.2649 10.1219 -0.0293 -1.1041 3.0353 15.0870 6.5476 -25.2125 -9.1571 5.5881 -2.1655 -16.7362 3.8659 13.7393 0.3274 0.0910 -13.8492 4.8595 0.5292 -23.9057 1.5205 -0.2440 -5.0841 -0.0000 0.0000 0.0000 39.0080 -56.7246 -57.6223 17.1485 -27.0531 -4.1546 -0.0000 0.0000 -57.3338 36.6313 -11.2490 -8.2526 -7.1250 0.0000 -0.0000 6.5631 16.1198 -4.5129 -0.0000 0.0000 0.0000 1.7802 53.0573 -32.6096 -27.5829 38.7294 -9.8616 0.0000 -0.0000 -21.7122 -22.1009 -7.7108 3.1186 7.1250 -0.0000 -0.0000 4.0647 -38.2648 0.6755
0.00 0.00 0.00 4.5740 -44.6984 104.7550 0.0000 0.0000 0.0000 -19.8736 -3.4754 -63.7661 17.0125 19.7847 81.2349 2.2248 1.2539 27.8866 0.8211 5.7817 16.1523 0.0000 0.0000 0.0000 14.6187 20.8573 -62.0025 -16.6967 -19.7364 80.3010 -0.3568 -11.7909 12.6060 -1.4801 -7.6869 21.7672 17.4127 5.1824 -26.5374 -12.2455 3.2641 -0.2140 -23.7457 3.7781 16.4956 0.6862 0.0280 -14.9783 13.0290 -1.6928 8.1606 3.8396 0.0429 5.0629 0.0000 0.0000 0.0000 95.9465 -36.4353 -88.6622 11.1394 -18.5016 -1.8199 -0.0000 0.0000 -10.8390 57.5630 -32.2235 -39.9976 -7.1250 0.0000 -0.0000 13.5538 -18.4647 -17.5454 0.0000 0.0000 0.0000 -74.5987 34.1560 -90.2403 -13.3088 21.7381 -2.5665 0.0000 0.0000 8.0096 -41.5288 3.7308 -3.2981 7.1250 -0.0000 -0.0000 -11.1393 -24.9933 -5.4889
0.00 0.00 0.00 -0.2279 -45.9639 110.3640 0.0000 0.0000 0.0000 -15.5458 -14.0311 -56.0480 5.7390 14.1706 43.9252 1.7354 1.9988 24.3620 1.6653 8.1310 23.1127 0.0000 0.0000 0.0000 14.9432 22.8255 -47.1861 -3.4311 -11.3623 33.5116 -0.0057 -11.7816 8.3452 -0.5042 -4.5518 12.6346 15.2716 6.8422 -30.5368 -11.3594 5.5550 -1.1996 -19.6622 4.4939 17.9670 0.9413 -0.7700 -16.6280 9.9509 -2.6103 9.2608 2.7561 -0.4960 5.6704 0.0000 0.0000 0.0000 77.4818 -42.6037 -145.1171 4.8043 -8.2540 -0.3469 -0.0000 -0.0000 70.8834 27.3230 -10.2941 -5.2749 -7.1250 0.0000 -0.0000 0.2034 18.4259 -0.1287 0.0000 0.0000 0.0000 -45.3285 31.2259 -57.3259 -13.5704 22.1173 -2.6642 0.0000 0.0000 19.7944 -24.5245 -7.1268 3.2397 7.1250 -0.0000 -0.0000 1.9380 -37.7985 0.3437
0.00 0.00 0.00 -0.4394 -46.0250 104.7960 0.0000 0.0000 0.0000 -17.8222 -9.3244 -62.2615 8.4042 16.4087 54.0060 1.1807 0.4221 20.4132 0.6092 4.9957 13.8963 0.0000 0.0000 0.0000 17.4022 20.8467 -54.9476 -6.0703 -14.4961 45.2631 -0.1038 -5.1545 6.3189 -0.3462 -3.7807 10.4604 15.4606 6.2453 -26.7878 -12.1310 5.3555 -0.4760 -21.1938 4.5801 17.1802 2.6430 -0.0789 -19.4480 10.3511 -2.9193 15.0650 2.6691 -0.2057 8.0525 0.0000 0.0000 0.0000 43.2411 -48.6013 -47.0644 22.5300 -33.5709 -6.8767 -0.0000 0.0000 -37.7470 30.9584 -8.7081 -5.1894 -7.1250 0.0000 -0.0000 2.9019 19.8595 -1.7457 0.0000 0.0000 0.0000 -5.3778 41.1971 -42.6358 -27.4157 38.5727 -9.7572 0.0000 -0.0000 -17.4668 -12.5154 -11.0275 2.4313 7.1250 -0.0000 -0.0000 12.8865 -40.9250 1.3197
0.00 0.00 0.00 -1.3455 -46.8891 101.1620 0.0000 0.0000 0.0000 -22.0108 -1.4444 -71.2210 14.0038 19.1152 72.2160 1.5514 -3.8336 25.1747 0.6257 5.0619 14.0851 0.0000 0.0000 0.0000 12.4519 24.2804 -66.3462 -13.0974 -18.8170 69.4277 -0.0458 -7.8162 6.4061 -0.4389 -4.2510 11.7839 15.4630 4.8049 -22.3705 -12.3621 3.9921 1.6284 -22.5649 4.2374 16.8473 1.7109 0.9600 -17.6659 5.6162 -0.2629 15.6748 1.5498 0.5205 7.7704 0.0000 0.0000 0.0000 -4.9355 -45.7484 21.9477 99.5173 -59.6550 -68.2327 -0.0000 0.0000 -43.0257 44.1369 -14.7275 -13.8568 -7.1250 0.0000 -0.0000 10.8703 10.1456 -8.9525 0.0000 0.0000 0.0000 49.2674 50.7666 24.4900 -81.3761 59.7171 -52.5386 0.0000 -0.0000 -19.6024 -25.6233 2.8794 -1.3801 7.1250 -0.0000 -0.0000 0.7470 -26.7868 0.3302
